# xmcd CD database file
#
# Track frame offsets:
#	150
#	15627
#	34211
#	55087
#	71354
#	86532
#	103985
#	125784
#	146472
#	163465
#	181968
#
# Disc length: 2624 seconds
#
# Revision: 0
# Processed by: cddbd v1.5.2PL0 Copyright (c) Steve Scherf et al.
# Submitted via: CDex 1.77
#
DISCID=9b0a3e0b
DTITLE=Fleetwood Mac - In Chicago Disk 2
DYEAR=1969
DGENRE=Blues
TTITLE0=I'm Worried
TTITLE1=I Held My Baby Last night
TTITLE2=Madison Blues
TTITLE3=I Can't Hold Out
TTITLE4=I need Your love
TTITLE5=i Got The Blues
TTITLE6=Black jack Blues
TTITLE7=Everyday I Have The Blues
TTITLE8=Rockin' Boogie
TTITLE9=Ssugar Momma
TTITLE10=Homework
EXTD=YEAR: 1969
EXTT0=
EXTT1=
EXTT2=
EXTT3=
EXTT4=
EXTT5=
EXTT6=
EXTT7=
EXTT8=
EXTT9=
EXTT10=
PLAYORDER=
